<svg width="121" height="38" fill="none" xmlns="http://www.w3.org/2000/svg"><g clip-path="url(#clip0)"><path fill="#fff" d="M0 0H121V38H0z"/><path d="M111.364 0H9.641c-.37 0-.737 0-1.107.002-.31.002-.617.007-.929.012-.679.007-1.356.063-2.026.168a7.046 7.046 0 0 0-1.922.595 6.509 6.509 0 0 0-1.637 1.12A6.01 6.01 0 0 0 .197 5.245a11.617 11.617 0 0 0-.182 1.902c-.01.291-.01.584-.015.875v21.959c.005.294.006.58.015.875.008.638.069 1.274.182 1.902.11.63.324 1.24.631 1.81A5.93 5.93 0 0 0 2.02 36.1c.478.453 1.03.831 1.637 1.12.605.289 1.253.49 1.922.599.67.103 1.347.16 2.026.168.313.006.62.01.93.01C8.903 38 9.27 38 9.64 38h101.723c.364 0 .733 0 1.096-.002.309 0 .625-.004.933-.01a14.277 14.277 0 0 0 2.022-.168 7.193 7.193 0 0 0 1.929-.6 6.341 6.341 0 0 0 1.636-1.12c.481-.448.884-.966 1.194-1.533.306-.57.517-1.18.626-1.809.113-.629.176-1.264.188-1.902.004-.295.004-.58.004-.875.008-.346.008-.689.008-1.04V9.06c0-.348 0-.693-.008-1.037 0-.291 0-.584-.004-.875a12.03 12.03 0 0 0-.188-1.902 5.973 5.973 0 0 0-.626-1.808 6.35 6.35 0 0 0-2.83-2.66 7.153 7.153 0 0 0-1.929-.595 14.027 14.027 0 0 0-2.022-.168c-.308-.005-.624-.01-.933-.012C112.097 0 111.728 0 111.364 0z" fill="#000"/><path d="M8.54 37.169c-.309 0-.61-.004-.915-.01a13.643 13.643 0 0 1-1.89-.156 6.218 6.218 0 0 1-1.675-.52c-.523-.249-1-.575-1.413-.966a5.085 5.085 0 0 1-1.032-1.327 5.209 5.209 0 0 1-.549-1.574 11.1 11.1 0 0 1-.168-1.781 81.33 81.33 0 0 1-.015-.867V8.021s.009-.657.015-.85c.007-.596.063-1.19.167-1.778a5.24 5.24 0 0 1 .55-1.58c.263-.491.61-.94 1.026-1.327.416-.392.894-.72 1.418-.972A6.156 6.156 0 0 1 5.731 1 13.525 13.525 0 0 1 7.627.843L8.54.83h103.916l.923.012a13.31 13.31 0 0 1 1.879.155c.588.093 1.157.269 1.69.52a5.493 5.493 0 0 1 2.441 2.299 5.25 5.25 0 0 1 .542 1.566c.105.593.163 1.192.175 1.793.003.27.003.558.003.846.008.356.008.695.008 1.037v19.882c0 .346 0 .682-.008 1.022 0 .309 0 .592-.004.883-.011.59-.069 1.179-.172 1.76a5.253 5.253 0 0 1-.546 1.587 5.27 5.27 0 0 1-1.027 1.317 5.47 5.47 0 0 1-1.415.971c-.532.253-1.1.429-1.687.522-.625.096-1.257.148-1.89.155-.296.007-.606.01-.908.01l-1.096.002L8.539 37.17z" fill="#fff"/><path d="M25.276 18.895a4.664 4.664 0 0 1 .677-2.35 5.042 5.042 0 0 1 1.8-1.751 5.232 5.232 0 0 0-1.83-1.532 5.594 5.594 0 0 0-2.366-.6c-1.766-.174-3.478.993-4.377.993-.918 0-2.303-.976-3.795-.947a5.853 5.853 0 0 0-2.73.765 5.412 5.412 0 0 0-1.973 1.93c-2.034 3.308-.517 8.17 1.431 10.843.975 1.31 2.114 2.772 3.604 2.72 1.459-.057 2.004-.873 3.764-.873 1.744 0 2.255.873 3.776.84 1.565-.024 2.551-1.315 3.492-2.636.7-.934 1.239-1.965 1.596-3.056a4.97 4.97 0 0 1-2.23-1.738 4.523 4.523 0 0 1-.84-2.608zm-2.872-7.992a4.624 4.624 0 0 0 1.171-3.448 5.33 5.33 0 0 0-3.372 1.64 4.521 4.521 0 0 0-.953 1.547 4.323 4.323 0 0 0-.25 1.773 4.545 4.545 0 0 0 1.887-.388 4.28 4.28 0 0 0 1.517-1.124zm20.37 14.88h-4.786l-1.15 3.188h-2.027l4.534-11.797h2.106l4.533 11.797h-2.061l-1.149-3.189zm-4.29-1.472h3.794l-1.87-5.175h-.053l-1.871 5.175zm17.291.36c0 2.673-1.523 4.39-3.82 4.39a3.267 3.267 0 0 1-1.67-.364 3.015 3.015 0 0 1-1.21-1.14h-.044v4.26h-1.88V20.37h1.82v1.43h.034a3.16 3.16 0 0 1 1.234-1.138 3.416 3.416 0 0 1 1.681-.382c2.324 0 3.855 1.726 3.855 4.39zm-1.931 0c0-1.741-.958-2.886-2.42-2.886-1.435 0-2.401 1.169-2.401 2.886 0 1.733.966 2.893 2.401 2.893 1.462 0 2.42-1.136 2.42-2.893zm12.008 0c0 2.673-1.523 4.39-3.821 4.39a3.268 3.268 0 0 1-1.67-.364 3.015 3.015 0 0 1-1.21-1.14h-.044v4.26h-1.88V20.37h1.82v1.43h.034a3.16 3.16 0 0 1 1.234-1.138 3.415 3.415 0 0 1 1.681-.382c2.324 0 3.856 1.726 3.856 4.39zm-1.932 0c0-1.741-.958-2.886-2.42-2.886-1.435 0-2.4 1.169-2.4 2.886 0 1.733.965 2.893 2.4 2.893 1.462 0 2.42-1.136 2.42-2.893zm8.59 1.013c.14 1.17 1.35 1.938 3.002 1.938 1.584 0 2.724-.768 2.724-1.823 0-.916-.688-1.464-2.315-1.84l-1.627-.368c-2.306-.523-3.376-1.536-3.376-3.18 0-2.036 1.888-3.434 4.567-3.434 2.655 0 4.474 1.398 4.535 3.434h-1.897c-.114-1.178-1.15-1.888-2.663-1.888-1.514 0-2.55.719-2.55 1.765 0 .834.662 1.325 2.28 1.7l1.384.32c2.576.572 3.645 1.545 3.645 3.27 0 2.207-1.87 3.59-4.846 3.59-2.785 0-4.665-1.35-4.786-3.484h1.923zm11.767-7.349v2.036h1.74v1.398h-1.74v4.741c0 .737.348 1.08 1.114 1.08.206-.003.413-.017.618-.04v1.39c-.344.06-.694.087-1.044.08-1.853 0-2.576-.653-2.576-2.321v-4.93h-1.331V20.37h1.33v-2.036h1.889zm2.748 6.337c0-2.707 1.696-4.407 4.342-4.407 2.654 0 4.343 1.7 4.343 4.407 0 2.713-1.68 4.406-4.343 4.406-2.662 0-4.342-1.693-4.342-4.406zm6.77 0c0-1.857-.906-2.952-2.428-2.952-1.523 0-2.428 1.104-2.428 2.952 0 1.863.905 2.95 2.428 2.95 1.522 0 2.428-1.087 2.428-2.95zm3.464-4.302h1.792v1.464h.044c.121-.457.406-.861.807-1.145.401-.282.894-.427 1.395-.41.216 0 .432.022.644.067v1.651a2.789 2.789 0 0 0-.845-.107 1.997 1.997 0 0 0-.797.133 1.9 1.9 0 0 0-.666.434 1.76 1.76 0 0 0-.412.655 1.679 1.679 0 0 0-.083.757v5.102H97.26V20.37zm13.346 6.075c-.253 1.562-1.872 2.633-3.942 2.633-2.664 0-4.317-1.676-4.317-4.366 0-2.697 1.662-4.447 4.238-4.447 2.532 0 4.125 1.635 4.125 4.242v.605h-6.466v.107c-.029.316.013.635.124.935.112.3.29.575.523.805.232.23.515.412.828.532.313.12.65.176.988.164.444.04.89-.057 1.271-.275.381-.218.676-.546.843-.935h1.785zm-6.353-2.567h4.577a1.95 1.95 0 0 0-.135-.836 2.056 2.056 0 0 0-.48-.716 2.21 2.21 0 0 0-.745-.475 2.326 2.326 0 0 0-.885-.155 2.449 2.449 0 0 0-.893.162c-.283.109-.54.27-.757.473a2.172 2.172 0 0 0-.506.71 2.06 2.06 0 0 0-.176.837zM38.248 8.295c.394-.027.79.03 1.158.163.368.135.7.344.971.614.272.27.477.592.6.945.122.352.16.726.11 1.094 0 1.811-1.041 2.852-2.839 2.852H36.07V8.295h2.18zm-1.242 4.867h1.138c.281.015.563-.028.824-.127.262-.1.496-.253.687-.448.19-.195.332-.428.415-.681.083-.254.105-.521.063-.783a1.685 1.685 0 0 0-.07-.778 1.765 1.765 0 0 0-.416-.676 1.908 1.908 0 0 0-.683-.445 2.012 2.012 0 0 0-.82-.128h-1.138v4.066zm5.14-1.34a1.912 1.912 0 0 1 .1-.832c.095-.268.249-.514.45-.723.203-.21.45-.376.724-.49a2.276 2.276 0 0 1 1.746 0c.275.114.521.28.723.49.203.209.356.455.45.723.096.268.13.552.101.833.03.281-.004.565-.099.834a2.003 2.003 0 0 1-.45.724 2.16 2.16 0 0 1-.724.492 2.277 2.277 0 0 1-1.748 0 2.158 2.158 0 0 1-.724-.492 2.003 2.003 0 0 1-.45-.724 1.912 1.912 0 0 1-.1-.834zm3.37 0c0-.926-.443-1.469-1.221-1.469-.782 0-1.22.543-1.22 1.47 0 .934.439 1.473 1.22 1.473.778 0 1.221-.542 1.221-1.473zm6.633 2.141h-.932l-.941-3.15h-.071l-.938 3.15h-.923L47.09 9.685h.912l.815 3.264h.067l.936-3.264h.862l.937 3.264h.07l.812-3.264h.899l-1.25 4.278zm2.306-4.278h.865v.68h.067a1.31 1.31 0 0 1 .55-.586c.243-.136.526-.198.809-.177.221-.015.444.016.65.092.207.076.393.195.545.348.151.153.264.336.33.535.066.2.083.41.05.616v2.77h-.898v-2.558c0-.687-.318-1.029-.983-1.029-.15-.006-.3.018-.44.07-.14.054-.265.134-.368.237a.972.972 0 0 0-.23.36.925.925 0 0 0-.049.417v2.503h-.898V9.685zm5.298-1.67h.899v5.948h-.899V8.015zm2.148 3.807a1.912 1.912 0 0 1 .1-.833c.096-.268.25-.514.451-.723.203-.21.449-.376.724-.49a2.276 2.276 0 0 1 1.745 0c.275.114.522.28.724.49.202.209.356.455.45.723.096.268.13.551.101.833.03.281-.004.565-.1.834a2.002 2.002 0 0 1-.45.724 2.16 2.16 0 0 1-.724.491 2.277 2.277 0 0 1-1.747 0 2.16 2.16 0 0 1-.724-.49 2.005 2.005 0 0 1-.45-.726 1.913 1.913 0 0 1-.1-.833zm3.37 0c0-.928-.443-1.47-1.221-1.47-.781 0-1.22.542-1.22 1.47 0 .934.439 1.473 1.22 1.473.778 0 1.222-.542 1.222-1.473zm1.871.932c0-.77.61-1.214 1.694-1.277l1.233-.067v-.37c0-.451-.318-.706-.932-.706-.502 0-.85.173-.95.475h-.87c.093-.734.828-1.206 1.861-1.206 1.142 0 1.786.534 1.786 1.438v2.923h-.865v-.601h-.072a1.5 1.5 0 0 1-.587.509c-.24.118-.51.174-.78.162a1.46 1.46 0 0 1-.567-.056 1.399 1.399 0 0 1-.494-.268 1.298 1.298 0 0 1-.337-.433 1.226 1.226 0 0 1-.12-.523zm2.927-.366v-.357l-1.112.066c-.627.04-.911.24-.911.617 0 .385.355.61.844.61.143.013.288 0 .425-.04.138-.04.265-.106.375-.193.11-.087.2-.195.266-.315a.962.962 0 0 0 .113-.388zm2.076-.566c0-1.351.74-2.208 1.89-2.208.284-.012.567.052.814.185s.45.33.582.566h.067v-2.35h.899v5.948h-.861v-.676h-.071a1.537 1.537 0 0 1-.605.56 1.662 1.662 0 0 1-.825.187c-1.159 0-1.89-.857-1.89-2.212zm.928 0c0 .908.455 1.454 1.217 1.454.757 0 1.225-.554 1.225-1.45 0-.892-.473-1.453-1.225-1.453-.757 0-1.217.55-1.217 1.45zm7.041 0a1.912 1.912 0 0 1 .1-.832c.096-.268.25-.514.451-.723.203-.21.449-.376.724-.49a2.276 2.276 0 0 1 1.745 0c.275.114.522.28.724.49.202.209.355.455.45.723.095.268.13.552.1.833.03.281-.004.565-.098.834a2.003 2.003 0 0 1-.45.724c-.203.21-.45.377-.725.492a2.277 2.277 0 0 1-1.747 0 2.158 2.158 0 0 1-.724-.492 2.003 2.003 0 0 1-.45-.724 1.912 1.912 0 0 1-.1-.834zm3.37 0c0-.926-.443-1.469-1.22-1.469-.782 0-1.221.543-1.221 1.47 0 .934.44 1.473 1.22 1.473.778 0 1.222-.542 1.222-1.473zm2.13-2.137h.865v.68h.068a1.31 1.31 0 0 1 .55-.586c.243-.136.526-.198.808-.177.222-.015.444.016.651.092.207.076.393.195.545.348.15.153.264.336.33.535.066.2.083.41.05.616v2.77h-.898v-2.558c0-.687-.318-1.029-.983-1.029-.15-.006-.3.018-.44.07-.14.054-.265.134-.368.237a.971.971 0 0 0-.23.36.926.926 0 0 0-.049.417v2.503h-.898V9.685zM94.56 8.62v1.085h.987v.711h-.987v2.2c0 .448.197.644.644.644.114 0 .229-.007.343-.02v.704a3.137 3.137 0 0 1-.49.043c-.998 0-1.396-.33-1.396-1.155v-2.416h-.723v-.711h.723V8.62h.9zm2.214-.605h.89v2.358h.072a1.35 1.35 0 0 1 .565-.59c.249-.137.536-.198.823-.177.22-.01.44.024.645.102.205.078.389.197.538.35.15.152.262.333.329.53.066.199.086.408.056.613v2.762h-.9V11.41c0-.684-.338-1.03-.973-1.03a1.127 1.127 0 0 0-.455.059c-.145.05-.277.13-.387.233a.992.992 0 0 0-.245.365.943.943 0 0 0-.06.428v2.498h-.898V8.015zm9.158 4.792a1.75 1.75 0 0 1-.747.956 1.942 1.942 0 0 1-1.226.282c-.3.008-.598-.046-.874-.158a2.073 2.073 0 0 1-.722-.489c-.2-.21-.349-.458-.437-.728a1.84 1.84 0 0 1-.07-.833 1.85 1.85 0 0 1 .072-.835c.087-.27.235-.52.435-.732.199-.212.444-.382.719-.497a2.21 2.21 0 0 1 .873-.17c1.267 0 2.031.812 2.031 2.156v.294h-3.215v.047c-.014.158.007.316.062.464.054.15.142.286.256.401.114.116.253.207.407.27.154.062.32.093.488.091a1.15 1.15 0 0 0 .625-.104c.193-.093.352-.237.458-.415h.865zm-3.161-1.378h2.3a.987.987 0 0 0-.299-.787 1.112 1.112 0 0 0-.375-.242 1.163 1.163 0 0 0-.447-.08 1.232 1.232 0 0 0-.454.081 1.17 1.17 0 0 0-.384.24c-.11.104-.197.226-.255.362a1.03 1.03 0 0 0-.086.426z" fill="#000"/></g><defs><clipPath id="clip0"><path fill="#fff" d="M0 0H121V38H0z"/></clipPath></defs></svg>