<svg fill="none" height="38" width="133" xmlns="http://www.w3.org/2000/svg"><linearGradient id="a" gradientUnits="userSpaceOnUse" x1="21.528" x2="5.676" y1="8.328" y2="24.812"><stop offset="0" stop-color="#00a0ff"/><stop offset=".007" stop-color="#00a1ff"/><stop offset=".26" stop-color="#00beff"/><stop offset=".512" stop-color="#00d2ff"/><stop offset=".76" stop-color="#00dfff"/><stop offset="1" stop-color="#00e3ff"/></linearGradient><linearGradient id="b" gradientUnits="userSpaceOnUse" x1="33.358" x2="9.572" y1="19.001" y2="19.001"><stop offset="0" stop-color="#ffe000"/><stop offset=".409" stop-color="#ffbd00"/><stop offset=".775" stop-color="orange"/><stop offset="1" stop-color="#ff9c00"/></linearGradient><linearGradient id="c" gradientUnits="userSpaceOnUse" x1="24.503" x2="3.007" y1="21.171" y2="43.525"><stop offset="0" stop-color="#ff3a44"/><stop offset="1" stop-color="#c31162"/></linearGradient><linearGradient id="d" gradientUnits="userSpaceOnUse" x1="7.272" x2="16.87" y1=".261" y2="10.243"><stop offset="0" stop-color="#32a071"/><stop offset=".069" stop-color="#2da771"/><stop offset=".476" stop-color="#15cf74"/><stop offset=".801" stop-color="#06e775"/><stop offset="1" stop-color="#00f076"/></linearGradient><linearGradient id="e" gradientUnits="userSpaceOnUse" x1="33.459" x2="9.312" y1="19.002" y2="19.002"><stop offset="0" stop-color="#ccb300"/><stop offset=".409" stop-color="#cc9700"/><stop offset=".775" stop-color="#cc8400"/><stop offset="1" stop-color="#cc7d00"/></linearGradient><linearGradient id="f" gradientUnits="userSpaceOnUse" x1="24.503" x2="3.007" y1="21.171" y2="43.525"><stop offset="0" stop-color="#cc2e36"/><stop offset="1" stop-color="#9c0e4e"/></linearGradient><linearGradient id="g" gradientUnits="userSpaceOnUse" x1="21.528" x2="5.676" y1="8.328" y2="24.812"><stop offset="0" stop-color="#008de0"/><stop offset=".007" stop-color="#008de0"/><stop offset=".26" stop-color="#00a7e0"/><stop offset=".512" stop-color="#00b8e0"/><stop offset=".76" stop-color="#00c4e0"/><stop offset="1" stop-color="#00c7e0"/></linearGradient><linearGradient id="h" gradientUnits="userSpaceOnUse" x1="24.718" x2="3.239" y1="21.171" y2="43.849"><stop offset="0" stop-color="#e0333c"/><stop offset="1" stop-color="#ab0f56"/></linearGradient><linearGradient id="i" gradientUnits="userSpaceOnUse" x1="33.358" x2="9.572" y1="19.001" y2="19.001"><stop offset="0" stop-color="#e0c500"/><stop offset=".409" stop-color="#e0a600"/><stop offset=".775" stop-color="#e09100"/><stop offset="1" stop-color="#e08900"/></linearGradient><linearGradient id="j" gradientUnits="userSpaceOnUse" x1="33.358" x2="9.572" y1="19.001" y2="19.001"><stop offset="0" stop-color="#ffe840"/><stop offset=".409" stop-color="#ffce40"/><stop offset=".775" stop-color="#ffbc40"/><stop offset="1" stop-color="#ffb540"/></linearGradient><linearGradient id="k" gradientUnits="userSpaceOnUse" x1="21.528" x2="5.676" y1="8.328" y2="24.812"><stop offset="0" stop-color="#40b8ff"/><stop offset=".007" stop-color="#40b9ff"/><stop offset=".26" stop-color="#40ceff"/><stop offset=".512" stop-color="#40ddff"/><stop offset=".76" stop-color="#40e7ff"/><stop offset="1" stop-color="#40eaff"/></linearGradient><linearGradient id="l" gradientUnits="userSpaceOnUse" x1="7.272" x2="16.871" y1=".261" y2="10.243"><stop offset="0" stop-color="#65b895"/><stop offset=".069" stop-color="#62bd95"/><stop offset=".476" stop-color="#50db97"/><stop offset=".801" stop-color="#44ed98"/><stop offset="1" stop-color="#40f498"/></linearGradient><path d="M0 0h133v38H0z" fill="#fff"/><path d="M127.89 37.906H5.015C2.312 37.906.1 35.779.1 33.178V4.821C.1 2.22 2.312.095 5.015.095H127.89c2.703 0 4.915 2.126 4.915 4.726v28.358c0 2.6-2.212 4.727-4.915 4.727z" fill="#fff"/><g fill="#000"><path d="M127.89.095H5.015C2.312.095.1 2.22.1 4.82v28.358c0 2.6 2.212 4.727 4.915 4.727H127.89c2.703 0 4.915-2.127 4.915-4.727V4.821c0-2.6-2.212-4.726-4.915-4.726zm0 .756c2.277 0 4.129 1.781 4.129 3.97v28.358c0 2.19-1.852 3.97-4.129 3.97H5.015c-2.276 0-4.129-1.78-4.129-3.97V4.821C.886 2.632 2.74.85 5.015.85H127.89z"/><path d="M46.71 9.777c0 .792-.243 1.423-.732 1.894-.555.559-1.278.839-2.167.839-.85 0-1.575-.284-2.17-.852-.596-.567-.894-1.271-.894-2.11 0-.84.298-1.544.894-2.112.595-.568 1.32-.852 2.17-.852.423 0 .827.08 1.211.238.384.159.692.37.922.634l-.518.499c-.39-.449-.928-.673-1.615-.673-.62 0-1.157.21-1.61.63s-.68.965-.68 1.635.227 1.216.68 1.636.99.63 1.61.63c.659 0 1.208-.211 1.648-.634.285-.275.45-.657.494-1.148h-2.142v-.682h2.858c.028.148.042.29.042.428z"/><path d="M46.71 9.777h-.098c0 .774-.235 1.375-.703 1.827h-.001v.001c-.538.54-1.228.81-2.096.81-.829 0-1.523-.273-2.102-.824-.577-.552-.863-1.225-.864-2.044 0-.818.287-1.492.864-2.044.58-.55 1.273-.823 2.102-.824.41 0 .8.077 1.172.23.372.154.666.357.885.608l.076-.061-.07-.067-.518.5.07.066.075-.06c-.409-.472-.982-.71-1.69-.708-.644 0-1.21.22-1.68.657-.472.437-.71 1.012-.71 1.703s.238 1.267.71 1.704a2.39 2.39 0 0 0 1.68.656c.68.001 1.26-.22 1.716-.66.305-.295.478-.702.523-1.208l.01-.103H43.91v-.492h2.76v-.095l-.097.017c.027.143.04.28.04.411h.196a2.4 2.4 0 0 0-.043-.445l-.014-.077h-3.039v.87h2.24v-.094l-.098-.009c-.043.476-.2.834-.466 1.09-.422.405-.94.605-1.577.606a2.187 2.187 0 0 1-1.543-.603c-.433-.403-.648-.917-.65-1.568.002-.65.217-1.165.65-1.568a2.186 2.186 0 0 1 1.543-.603c.664.002 1.166.213 1.54.64l.068.079.594-.572.064-.062-.058-.066a2.525 2.525 0 0 0-.959-.66 3.248 3.248 0 0 0-1.25-.245c-.873 0-1.627.294-2.24.879-.613.583-.923 1.317-.922 2.178 0 .861.309 1.595.923 2.179.611.584 1.366.879 2.24.878.91.001 1.665-.29 2.238-.868l-.072-.066.07.067c.51-.489.762-1.15.761-1.96h-.098zm4.532-2.369h-2.686v1.798h2.422v.682h-2.422v1.798h2.686v.697h-3.443V6.711h3.443z"/><path d="M51.242 7.408v-.094h-2.785V9.3h2.423v.492h-2.423v1.988h2.686v.508h-3.246V6.806h3.246v.602h.099v-.094.094h.098v-.791H47.7v5.86h3.64v-.885h-2.686v-1.61h2.422v-.87h-2.422v-1.61h2.686v-.094zm3.195 4.975h-.758V7.408h-1.647v-.697h4.053v.697h-1.648z"/><path d="M54.438 12.383v-.094h-.66V7.314H52.13v-.508h3.857v.508h-1.648v5.069h.099v-.094.094h.098v-4.88h1.647v-.886h-4.25v.886h1.648v4.974h.955v-.094zm4.58 0V6.711h.757v5.672h-.758z"/><path d="M59.017 12.383h.098V6.806h.561v5.483h-.659v.094h.098-.098v.095h.856V6.616h-.954v5.86h.098v-.094zm4.12 0h-.759V7.408h-1.647v-.697h4.053v.697h-1.647z"/><path d="M63.137 12.383v-.094h-.66V7.314h-1.648v-.508h3.857v.508h-1.648v5.069h.099v-.094.094h.098v-4.88h1.647v-.886h-4.25v.886h1.648v4.974h.955v-.094zm5.554-1.208c.437.425.971.638 1.603.638.631 0 1.166-.213 1.602-.638.437-.425.656-.968.656-1.628s-.22-1.203-.656-1.628-.97-.637-1.602-.637-1.166.212-1.603.637c-.436.425-.654.968-.654 1.628s.218 1.203.654 1.628zm3.765.475c-.58.573-1.3.86-2.162.86-.863 0-1.584-.287-2.162-.86-.58-.573-.87-1.274-.87-2.103s.29-1.53.87-2.103c.578-.573 1.3-.86 2.162-.86.857 0 1.576.288 2.159.864.581.576.872 1.275.872 2.1 0 .828-.29 1.53-.869 2.102z"/><path d="M68.692 11.175l-.07.067a2.311 2.311 0 0 0 1.672.665c.654.001 1.22-.223 1.672-.665.456-.443.685-1.015.684-1.695 0-.68-.229-1.252-.684-1.694a2.311 2.311 0 0 0-1.672-.666 2.31 2.31 0 0 0-1.672.666c-.455.442-.685 1.014-.683 1.694-.002.68.228 1.252.683 1.695l.07-.067.07-.066c-.418-.408-.626-.921-.627-1.562 0-.64.21-1.153.626-1.561.421-.408.924-.608 1.533-.61.608.002 1.112.202 1.532.61.418.408.626.921.627 1.561 0 .64-.21 1.154-.627 1.562-.42.408-.924.608-1.532.61-.61-.002-1.112-.202-1.533-.61l-.07.066zm3.765.475l-.07-.066c-.564.556-1.254.83-2.093.831-.84 0-1.53-.275-2.092-.83l-.002-.004.002.003c-.562-.557-.84-1.229-.84-2.037s.278-1.48.84-2.037c.563-.555 1.252-.83 2.092-.831.834.001 1.522.277 2.088.835.565.56.844 1.23.845 2.033-.001.808-.28 1.48-.84 2.037l.07.066.07.066c.596-.589.897-1.319.897-2.169 0-.845-.302-1.573-.9-2.165-.6-.593-1.35-.893-2.23-.892-.885-.001-1.637.298-2.233.889-.597.588-.897 1.318-.896 2.168-.001.85.3 1.58.896 2.17l.003.002-.003-.003c.596.591 1.348.889 2.233.888.884.001 1.637-.297 2.233-.888zm1.932.733V6.711h.922l2.867 4.413h.032l-.032-1.093V6.71h.758v5.672h-.791l-2.999-4.626h-.032l.032 1.093v3.533h-.757z"/><path d="M74.39 12.383h.097V6.806h.77l2.866 4.412h.188l-.035-1.189V6.806h.562v5.483H78.2l-3-4.626h-.187l.035 1.189v3.437h-.659v.094h.098-.098v.095h.856v-3.63l-.033-1.094-.098.003v.095h.032v-.095l-.083.05 3.028 4.67h.943v-5.86h-.955v3.415l.033 1.094.099-.002v-.095h-.033v.095l.083-.05-2.895-4.457H74.29v5.86h.098v-.094zm30.826 16.07h1.835V16.636h-1.835zm16.522-7.56l-2.103 5.123h-.063l-2.182-5.123h-1.976l3.272 7.16-1.865 3.983h1.914l5.042-11.144h-2.039zm-10.402 6.218c-.602 0-1.44-.29-1.44-1.004 0-.912 1.044-1.262 1.945-1.262.807 0 1.185.168 1.676.396-.143 1.094-1.123 1.87-2.181 1.87zm.221-6.477c-1.328 0-2.703.563-3.273 1.81l1.628.653c.348-.654.996-.867 1.676-.867.949 0 1.913.548 1.929 1.52v.122c-.332-.182-1.043-.456-1.913-.456-1.755 0-3.542.927-3.542 2.66 0 1.582 1.439 2.6 3.051 2.6 1.234 0 1.913-.532 2.341-1.155h.063v.912h1.77v-4.53c0-2.098-1.628-3.269-3.73-3.269zm-11.336 1.697h-2.61v-4.05h2.61c1.371 0 2.15 1.091 2.15 2.025 0 .915-.779 2.025-2.15 2.025zm-.047-5.695h-4.395v11.817h1.833v-4.477h2.562c2.032 0 4.031-1.416 4.031-3.67 0-2.255-1.999-3.67-4.031-3.67zM76.207 27.113c-1.267 0-2.328-1.02-2.328-2.422 0-1.416 1.06-2.451 2.328-2.451 1.251 0 2.233 1.035 2.233 2.451 0 1.402-.982 2.422-2.233 2.422zm2.106-5.559h-.063c-.412-.472-1.204-.898-2.201-.898-2.09 0-4.007 1.766-4.007 4.035 0 2.254 1.916 4.006 4.007 4.006.997 0 1.79-.427 2.2-.914h.064v.579c0 1.538-.855 2.36-2.233 2.36-1.124 0-1.82-.777-2.106-1.431l-1.6.64a3.982 3.982 0 0 0 3.706 2.375c2.154 0 3.975-1.219 3.975-4.188V20.9h-1.742zm3.01 6.899h1.836V16.635h-1.837v11.818zm4.544-3.899c-.047-1.553 1.251-2.345 2.186-2.345.729 0 1.346.35 1.551.853zm5.701-1.34c-.347-.898-1.41-2.558-3.579-2.558-2.154 0-3.943 1.63-3.943 4.02 0 2.254 1.774 4.02 4.15 4.02a4.196 4.196 0 0 0 3.484-1.781L90.254 26c-.475.67-1.124 1.112-2.059 1.112-.934 0-1.6-.412-2.027-1.218l5.59-2.224-.19-.457zM47.031 21.89v1.706h4.244c-.127.96-.46 1.66-.966 2.147-.618.594-1.584 1.249-3.278 1.249-2.614 0-4.656-2.025-4.656-4.538s2.042-4.538 4.656-4.538c1.409 0 2.438.533 3.198 1.218l1.251-1.203c-1.06-.975-2.47-1.721-4.45-1.721-3.579 0-6.588 2.802-6.588 6.244s3.01 6.244 6.589 6.244c1.932 0 3.388-.61 4.529-1.752 1.171-1.127 1.536-2.71 1.536-3.99 0-.396-.032-.761-.095-1.066zm10.89 5.224c-1.267 0-2.36-1.005-2.36-2.437 0-1.447 1.093-2.436 2.36-2.436s2.36.99 2.36 2.436c0 1.432-1.093 2.437-2.36 2.437zm0-6.457c-2.312 0-4.197 1.69-4.197 4.02 0 2.315 1.885 4.02 4.197 4.02s4.197-1.705 4.197-4.02c0-2.33-1.885-4.02-4.197-4.02zm9.155 6.457c-1.267 0-2.36-1.005-2.36-2.437 0-1.447 1.093-2.436 2.36-2.436s2.36.99 2.36 2.436c0 1.432-1.093 2.437-2.36 2.437zm0-6.457c-2.312 0-4.197 1.69-4.197 4.02 0 2.315 1.885 4.02 4.197 4.02s4.197-1.705 4.197-4.02c0-2.33-1.885-4.02-4.197-4.02z"/></g><path d="M10.43 30.711l-.073-.067c-.287-.29-.455-.743-.455-1.328v.138V8.543v.144c0-.634.197-1.112.526-1.398l12.18 11.712L10.43 30.71zM9.906 8.387v-.002zm0-.006V8.38z" fill="url(#a)"/><path d="M26.666 23.044l.093-.05 4.81-2.628c.458-.25.764-.555.917-.876-.153.321-.458.626-.917.876l-4.81 2.628zm.002-.138l-4.06-3.905 4.06-3.905 4.9 2.678c.623.34.973.779 1.031 1.226v.002c-.058.447-.408.886-1.03 1.226z" fill="url(#b)"/><path d="M11.298 31.157zm0-.138c-.34 0-.637-.106-.868-.307L22.608 19l4.06 3.905L12.4 30.702c-.395.215-.77.317-1.102.317zm-.872-.171a1.304 1.304 0 0 1-.063-.06z" fill="url(#c)"/><path d="M22.607 19L10.428 7.29c.232-.201.528-.308.868-.308.333 0 .708.103 1.103.318l14.268 7.796-4.06 3.905zm4.152-3.992L12.4 7.162c-.395-.215-.77-.318-1.103-.318h-.004.006c.332 0 .706.102 1.101.318l14.36 7.846z" fill="url(#d)"/><path d="M11.388 31.155c.31-.017.652-.119 1.011-.315l14.268-7.796-14.268 7.796c-.36.196-.702.298-1.01.315zm-.959-.305l-.003-.002zm-.066-.062l-.007-.006z" fill="#fff"/><path d="M26.666 23.044l.095-.05z" fill="url(#e)"/><path d="M11.299 31.157a1.3 1.3 0 0 1-.87-.307l-.003-.002-.063-.06-.007-.006.074-.07c.231.2.528.307.868.307.332 0 .707-.102 1.101-.317l14.269-7.796.091.088-.092.05-14.268 7.796c-.36.196-.702.298-1.01.315-.031.002-.061.002-.09.002z" fill="url(#f)"/><path d="M10.357 30.782c-.287-.29-.455-.742-.455-1.328 0 .585.168 1.037.455 1.328z" fill="#fff"/><path d="M10.357 30.782c-.287-.291-.455-.743-.455-1.328v-.138c0 .585.168 1.037.455 1.328l.073.068z" fill="url(#g)"/><path d="M10.356 30.782l.075-.07z" fill="url(#h)"/><path d="M26.76 22.994l-.092-.088 4.9-2.678c.623-.34.973-.78 1.031-1.226 0 .164-.038.328-.113.488-.153.321-.459.625-.917.876l-4.81 2.628z" fill="url(#i)"/><path d="M32.6 19c-.001-.494-.345-.988-1.031-1.364l-4.81-2.628 4.81 2.628c.687.375 1.031.87 1.03 1.365z" fill="#404040"/><path d="M32.6 19c-.06-.448-.409-.886-1.031-1.226l-4.901-2.678.09-.088h.001l4.81 2.628c.686.375 1.03.87 1.03 1.364z" fill="url(#j)"/><path d="M9.906 8.39v-.002zm0-.005v-.004zm0-.005c.057-.971.606-1.532 1.383-1.535a1.29 1.29 0 0 0-.86.307l-.003.002a1.321 1.321 0 0 0-.07.066c-.258.263-.42.656-.45 1.16z" fill="#404040"/><path d="M9.902 8.687V8.543c0-.053.001-.104.004-.153V8.38c.03-.504.192-.898.45-1.16l.072.07c-.33.285-.526.763-.526 1.397zm.524-1.533l.003-.003z" fill="url(#k)"/><path d="M26.667 15.096L12.4 7.3c-.395-.215-.77-.318-1.103-.318a1.3 1.3 0 0 0-.868.307l-.072-.07.07-.065.003-.003c.23-.199.523-.305.86-.307h.007c.333 0 .708.103 1.103.318l14.36 7.846-.092.088z" fill="url(#l)"/></svg>